<svg width="17" height="14" viewBox="0 0 17 14" fill="none" xmlns="http://www.w3.org/2000/svg">
<path d="M16.9291 6.45775C15.2127 2.47264 11.9838 0 8.5 0C5.01622 0 1.78734 2.47264 0.0709374 6.45775C0.0241498 6.56496 0 6.68066 0 6.79763C0 6.9146 0.0241498 7.03031 0.0709374 7.13751C1.78734 11.1226 5.01622 13.5953 8.5 13.5953C11.9838 13.5953 15.2127 11.1226 16.9291 7.13751C16.9759 7.03031 17 6.9146 17 6.79763C17 6.68066 16.9759 6.56496 16.9291 6.45775ZM8.5 11.8959C5.80644 11.8959 3.25733 9.95004 1.78734 6.79763C3.25733 3.64523 5.80644 1.69941 8.5 1.69941C11.1936 1.69941 13.7427 3.64523 15.2127 6.79763C13.7427 9.95004 11.1936 11.8959 8.5 11.8959ZM8.5 3.39882C7.82778 3.39882 7.17065 3.59815 6.61172 3.97162C6.05279 4.34509 5.61715 4.87591 5.3599 5.49696C5.10266 6.11801 5.03535 6.8014 5.16649 7.46071C5.29764 8.12001 5.62134 8.72563 6.09668 9.20096C6.57201 9.67629 7.17762 10 7.83693 10.1311C8.49623 10.2623 9.17962 10.195 9.80067 9.93773C10.4217 9.68048 10.9525 9.24485 11.326 8.68591C11.6995 8.12698 11.8988 7.46986 11.8988 6.79763C11.8988 5.89621 11.5407 5.03171 10.9033 4.39431C10.2659 3.7569 9.40142 3.39882 8.5 3.39882ZM8.5 8.49704C8.16389 8.49704 7.83533 8.39737 7.55586 8.21064C7.2764 8.02391 7.05858 7.75849 6.92995 7.44797C6.80133 7.13744 6.76768 6.79575 6.83325 6.46609C6.89882 6.13644 7.06067 5.83364 7.29834 5.59597C7.53601 5.3583 7.83881 5.19645 8.16846 5.13088C8.49812 5.06531 8.83981 5.09896 9.15034 5.22758C9.46086 5.35621 9.72628 5.57403 9.91301 5.85349C10.0997 6.13296 10.1994 6.46152 10.1994 6.79763C10.1994 7.24834 10.0204 7.68059 9.70166 7.9993C9.38296 8.318 8.95071 8.49704 8.5 8.49704Z" fill="#75839D"/>
</svg>
