<svg width="27" height="27" viewBox="0 0 27 27" fill="none" xmlns="http://www.w3.org/2000/svg">
<path d="M18.4115 14.4576C19.7343 13.4169 20.6998 11.9898 21.1737 10.3748C21.6476 8.75977 21.6064 7.03722 21.0557 5.44676C20.5051 3.8563 19.4724 2.47702 18.1013 1.50081C16.7302 0.524598 15.089 0 13.4059 0C11.7228 0 10.0816 0.524598 8.71053 1.50081C7.33947 2.47702 6.30677 3.8563 5.75611 5.44676C5.20545 7.03722 5.16421 8.75977 5.63812 10.3748C6.11203 11.9898 7.07753 13.4169 8.4003 14.4576C6.13371 15.3657 4.15604 16.8718 2.6781 18.8155C1.20017 20.7591 0.277393 23.0674 0.00813829 25.4942C-0.0113518 25.6714 0.00424786 25.8507 0.0540462 26.0218C0.103844 26.193 0.186866 26.3527 0.298372 26.4917C0.523567 26.7726 0.85111 26.9525 1.20895 26.9919C1.56678 27.0312 1.9256 26.9268 2.20646 26.7016C2.48732 26.4764 2.66722 26.1489 2.70658 25.7911C3.00285 23.1536 4.26046 20.7177 6.23914 18.9489C8.21782 17.18 10.7788 16.2022 13.4329 16.2022C16.087 16.2022 18.648 17.18 20.6267 18.9489C22.6053 20.7177 23.8629 23.1536 24.1592 25.7911C24.1959 26.1226 24.3541 26.4288 24.6033 26.6505C24.8524 26.8723 25.1749 26.9939 25.5084 26.9919H25.6569C26.0105 26.9512 26.3338 26.7723 26.5562 26.4943C26.7786 26.2163 26.8821 25.8617 26.8442 25.5077C26.5736 23.074 25.6459 20.7598 24.1604 18.8131C22.6748 16.8665 20.6876 15.3609 18.4115 14.4576ZM13.4059 13.4996C12.3385 13.4996 11.2951 13.1831 10.4076 12.5901C9.52005 11.9971 8.82832 11.1542 8.41984 10.168C8.01136 9.1819 7.90449 8.09676 8.11273 7.04987C8.32097 6.00297 8.83497 5.04134 9.58974 4.28657C10.3445 3.5318 11.3061 3.0178 12.353 2.80956C13.3999 2.60132 14.4851 2.7082 15.4712 3.11667C16.4574 3.52515 17.3002 4.21688 17.8933 5.1044C18.4863 5.99191 18.8028 7.03535 18.8028 8.10275C18.8028 9.53409 18.2342 10.9068 17.2221 11.9189C16.21 12.931 14.8373 13.4996 13.4059 13.4996Z" fill="#73798C"/>
</svg>
