<svg width="21" height="21" viewBox="0 0 21 21" fill="none" xmlns="http://www.w3.org/2000/svg">
<path d="M20.6857 19.2192L16.8099 15.3433C20.0572 11.2579 19.4287 5.28701 15.3433 2.03966C11.2579 -1.20769 5.28701 -0.474413 2.03966 3.50621C-1.20769 7.59158 -0.474413 13.5625 3.50621 16.8099C6.96306 19.5334 11.8865 19.5334 15.3433 16.8099L19.2192 20.6857C19.6382 21.1047 20.2667 21.1047 20.6857 20.6857C21.1047 20.2667 21.1047 19.6382 20.6857 19.2192ZM9.47714 16.8099C5.39177 16.8099 2.14442 13.5625 2.14442 9.47714C2.14442 5.39177 5.39177 2.14442 9.47714 2.14442C13.5625 2.14442 16.8099 5.39177 16.8099 9.47714C16.8099 13.5625 13.5625 16.8099 9.47714 16.8099Z" fill="#5F43E9"/>
</svg>
