<svg width="20" height="21" viewBox="0 0 20 21" fill="none" xmlns="http://www.w3.org/2000/svg">
<path d="M11 14.004H5.00001C4.73479 14.004 4.48044 14.1093 4.2929 14.2969C4.10537 14.4844 4.00001 14.7388 4.00001 15.004C4.00001 15.2692 4.10537 15.5235 4.2929 15.7111C4.48044 15.8986 4.73479 16.004 5.00001 16.004H11C11.2652 16.004 11.5196 15.8986 11.7071 15.7111C11.8947 15.5235 12 15.2692 12 15.004C12 14.7388 11.8947 14.4844 11.7071 14.2969C11.5196 14.1093 11.2652 14.004 11 14.004ZM7.00001 8.00397H9.00001C9.26522 8.00397 9.51958 7.89862 9.70711 7.71108C9.89465 7.52354 10 7.26919 10 7.00397C10 6.73876 9.89465 6.4844 9.70711 6.29687C9.51958 6.10933 9.26522 6.00397 9.00001 6.00397H7.00001C6.73479 6.00397 6.48044 6.10933 6.2929 6.29687C6.10537 6.4844 6.00001 6.73876 6.00001 7.00397C6.00001 7.26919 6.10537 7.52354 6.2929 7.71108C6.48044 7.89862 6.73479 8.00397 7.00001 8.00397ZM19 10.004H16V1.00397C16.0007 0.827765 15.9548 0.654498 15.867 0.501721C15.7792 0.348943 15.6526 0.222079 15.5 0.133975C15.348 0.0462063 15.1755 0 15 0C14.8245 0 14.652 0.0462063 14.5 0.133975L11.5 1.85397L8.50001 0.133975C8.34799 0.0462063 8.17554 0 8.00001 0C7.82447 0 7.65203 0.0462063 7.50001 0.133975L4.50001 1.85397L1.50001 0.133975C1.34799 0.0462063 1.17554 0 1.00001 0C0.824471 0 0.652027 0.0462063 0.500008 0.133975C0.347404 0.222079 0.220789 0.348943 0.132986 0.501721C0.0451828 0.654498 -0.000691685 0.827765 7.88288e-06 1.00397V17.004C7.88288e-06 17.7996 0.316078 18.5627 0.878688 19.1253C1.4413 19.6879 2.20436 20.004 3.00001 20.004H17C17.7957 20.004 18.5587 19.6879 19.1213 19.1253C19.6839 18.5627 20 17.7996 20 17.004V11.004C20 10.7388 19.8947 10.4844 19.7071 10.2969C19.5196 10.1093 19.2652 10.004 19 10.004ZM3.00001 18.004C2.73479 18.004 2.48044 17.8986 2.2929 17.7111C2.10536 17.5235 2.00001 17.2692 2.00001 17.004V2.73397L4.00001 3.87397C4.15435 3.95459 4.32589 3.99669 4.50001 3.99669C4.67413 3.99669 4.84567 3.95459 5.00001 3.87397L8.00001 2.15397L11 3.87397C11.1543 3.95459 11.3259 3.99669 11.5 3.99669C11.6741 3.99669 11.8457 3.95459 12 3.87397L14 2.73397V17.004C14.0027 17.3451 14.0636 17.6833 14.18 18.004H3.00001ZM18 17.004C18 17.2692 17.8947 17.5235 17.7071 17.7111C17.5196 17.8986 17.2652 18.004 17 18.004C16.7348 18.004 16.4804 17.8986 16.2929 17.7111C16.1054 17.5235 16 17.2692 16 17.004V12.004H18V17.004ZM11 10.004H5.00001C4.73479 10.004 4.48044 10.1093 4.2929 10.2969C4.10537 10.4844 4.00001 10.7388 4.00001 11.004C4.00001 11.2692 4.10537 11.5235 4.2929 11.7111C4.48044 11.8986 4.73479 12.004 5.00001 12.004H11C11.2652 12.004 11.5196 11.8986 11.7071 11.7111C11.8947 11.5235 12 11.2692 12 11.004C12 10.7388 11.8947 10.4844 11.7071 10.2969C11.5196 10.1093 11.2652 10.004 11 10.004Z" fill="#262B35"/>
</svg>
