<svg width="22" height="17" viewBox="0 0 22 17" fill="none" xmlns="http://www.w3.org/2000/svg">
<path d="M11.3 8.72C11.8336 8.25813 12.2616 7.68688 12.5549 7.04502C12.8482 6.40316 13 5.70571 13 5C13 3.67392 12.4732 2.40215 11.5355 1.46447C10.5979 0.526784 9.32608 1.78911e-07 8 1.78911e-07C6.67392 1.78911e-07 5.40215 0.526784 4.46447 1.46447C3.52678 2.40215 3 3.67392 3 5C2.99999 5.70571 3.1518 6.40316 3.44513 7.04502C3.73845 7.68688 4.16642 8.25813 4.7 8.72C3.30014 9.35388 2.11247 10.3775 1.27898 11.6685C0.445495 12.9596 0.00147185 14.4633 0 16C0 16.2652 0.105357 16.5196 0.292893 16.7071C0.48043 16.8946 0.734784 17 1 17C1.26522 17 1.51957 16.8946 1.70711 16.7071C1.89464 16.5196 2 16.2652 2 16C2 14.4087 2.63214 12.8826 3.75736 11.7574C4.88258 10.6321 6.4087 10 8 10C9.5913 10 11.1174 10.6321 12.2426 11.7574C13.3679 12.8826 14 14.4087 14 16C14 16.2652 14.1054 16.5196 14.2929 16.7071C14.4804 16.8946 14.7348 17 15 17C15.2652 17 15.5196 16.8946 15.7071 16.7071C15.8946 16.5196 16 16.2652 16 16C15.9985 14.4633 15.5545 12.9596 14.721 11.6685C13.8875 10.3775 12.6999 9.35388 11.3 8.72ZM8 8C7.40666 8 6.82664 7.82405 6.33329 7.49441C5.83994 7.16476 5.45542 6.69623 5.22836 6.14805C5.0013 5.59987 4.94189 4.99667 5.05764 4.41473C5.1734 3.83279 5.45912 3.29824 5.87868 2.87868C6.29824 2.45912 6.83279 2.1734 7.41473 2.05764C7.99667 1.94189 8.59987 2.0013 9.14805 2.22836C9.69623 2.45542 10.1648 2.83994 10.4944 3.33329C10.8241 3.82664 11 4.40666 11 5C11 5.79565 10.6839 6.55871 10.1213 7.12132C9.55871 7.68393 8.79565 8 8 8ZM17.74 8.32C18.38 7.59933 18.798 6.70905 18.9438 5.75634C19.0896 4.80362 18.9569 3.82907 18.5618 2.95C18.1666 2.07093 17.5258 1.3248 16.7165 0.801423C15.9071 0.27805 14.9638 -0.0002576 14 1.78911e-07C13.7348 1.78911e-07 13.4804 0.105357 13.2929 0.292893C13.1054 0.48043 13 0.734784 13 1C13 1.26522 13.1054 1.51957 13.2929 1.70711C13.4804 1.89464 13.7348 2 14 2C14.7956 2 15.5587 2.31607 16.1213 2.87868C16.6839 3.44129 17 4.20435 17 5C16.9986 5.52524 16.8593 6.0409 16.5961 6.49542C16.3328 6.94994 15.9549 7.32738 15.5 7.59C15.3517 7.67552 15.2279 7.79766 15.1404 7.94474C15.0528 8.09182 15.0045 8.2589 15 8.43C14.9958 8.59976 15.0349 8.7678 15.1137 8.91826C15.1924 9.06872 15.3081 9.19665 15.45 9.29L15.84 9.55L15.97 9.62C17.1754 10.1917 18.1923 11.096 18.901 12.2263C19.6096 13.3566 19.9805 14.6659 19.97 16C19.97 16.2652 20.0754 16.5196 20.2629 16.7071C20.4504 16.8946 20.7048 17 20.97 17C21.2352 17 21.4896 16.8946 21.6771 16.7071C21.8646 16.5196 21.97 16.2652 21.97 16C21.9782 14.4654 21.5938 12.9543 20.8535 11.6101C20.1131 10.2659 19.0413 9.13331 17.74 8.32Z" fill="#262B35"/>
</svg>
