<svg width="27" height="27" viewBox="0 0 27 27" fill="none" xmlns="http://www.w3.org/2000/svg">
<path d="M9.45 24.8063H9.95625V24.3V17.55V17.0438H9.45H2.7H2.19375V17.55V24.3V24.8063H2.7H9.45ZM0.753379 26.2466L0.395406 26.6046L0.753378 26.2466C0.595145 26.0884 0.50625 25.8738 0.50625 25.65V16.2C0.50625 15.9762 0.595145 15.7616 0.753379 15.6034C0.911613 15.4451 1.12622 15.3563 1.35 15.3563H10.8C11.0238 15.3563 11.2384 15.4451 11.3966 15.6034C11.5549 15.7616 11.6438 15.9762 11.6438 16.2V25.65C11.6438 25.8738 11.5549 26.0884 11.3966 26.2466C11.2384 26.4049 11.0238 26.4938 10.8 26.4938H1.35C1.12622 26.4938 0.911612 26.4049 0.753379 26.2466ZM24.3 9.95625H24.8063V9.45V2.7V2.19375H24.3H17.55H17.0438V2.7V9.45V9.95625H17.55H24.3ZM26.2466 0.753378L26.604 0.396015L26.2466 0.753379C26.4049 0.911612 26.4938 1.12622 26.4938 1.35V10.8C26.4938 11.0238 26.4049 11.2384 26.2466 11.3966C26.0884 11.5549 25.8738 11.6438 25.65 11.6438H16.2C15.9762 11.6438 15.7616 11.5549 15.6034 11.3966C15.4451 11.2384 15.3563 11.0238 15.3563 10.8V1.35C15.3563 1.12622 15.4451 0.911613 15.6034 0.753379C15.7616 0.595145 15.9762 0.50625 16.2 0.50625H25.65C25.8738 0.50625 26.0884 0.595145 26.2466 0.753378ZM24.3 24.8063H24.8063V24.3V17.55V17.0438H24.3H17.55H17.0438V17.55V24.3V24.8063H17.55H24.3ZM26.2466 26.2466L26.6046 26.6046L26.2466 26.2466C26.0884 26.4049 25.8738 26.4938 25.65 26.4938H16.2C15.9762 26.4938 15.7616 26.4049 15.6034 26.2466C15.4451 26.0884 15.3563 25.8738 15.3563 25.65V16.2C15.3563 15.9762 15.4451 15.7616 15.6034 15.6034C15.7616 15.4451 15.9762 15.3563 16.2 15.3563H25.65C25.8738 15.3563 26.0884 15.4451 26.2466 15.6034C26.4049 15.7616 26.4938 15.9762 26.4938 16.2V25.65C26.4938 25.8738 26.4049 26.0884 26.2466 26.2466ZM9.45 9.95625H9.95625V9.45V2.7V2.19375H9.45H2.7H2.19375V2.7V9.45V9.95625H2.7H9.45ZM1.35 0.50625H10.8C11.0238 0.50625 11.2384 0.595145 11.3966 0.753379C11.5549 0.911612 11.6438 1.12622 11.6438 1.35V10.8C11.6438 11.0238 11.5549 11.2384 11.3966 11.3966C11.2384 11.5549 11.0238 11.6438 10.8 11.6438H1.35C1.12622 11.6438 0.911612 11.5549 0.753379 11.3966C0.595145 11.2384 0.50625 11.0238 0.50625 10.8V1.35C0.50625 1.12622 0.595145 0.911612 0.753379 0.753379C0.911612 0.595145 1.12622 0.50625 1.35 0.50625Z" fill="#73798C" stroke="#73798C"/>
</svg>
