<svg width="18" height="22" viewBox="0 0 18 22" fill="none" xmlns="http://www.w3.org/2000/svg">
<path d="M9.581 10.219C9.47639 10.1189 9.35303 10.0404 9.218 9.98801C8.9502 9.87799 8.64981 9.87799 8.382 9.98801C8.24698 10.0404 8.12362 10.1189 8.019 10.219L5.819 12.419C5.61187 12.6261 5.4955 12.9071 5.4955 13.2C5.4955 13.4929 5.61187 13.7739 5.819 13.981C6.02614 14.1881 6.30707 14.3045 6.6 14.3045C6.89293 14.3045 7.17387 14.1881 7.381 13.981L7.7 13.651V16.5C7.7 16.7917 7.8159 17.0715 8.02219 17.2778C8.22848 17.4841 8.50826 17.6 8.8 17.6C9.09174 17.6 9.37153 17.4841 9.57782 17.2778C9.78411 17.0715 9.9 16.7917 9.9 16.5V13.651L10.219 13.981C10.3213 14.0841 10.4429 14.1659 10.577 14.2218C10.711 14.2776 10.8548 14.3064 11 14.3064C11.1452 14.3064 11.289 14.2776 11.423 14.2218C11.5571 14.1659 11.6787 14.0841 11.781 13.981C11.8841 13.8787 11.9659 13.7571 12.0218 13.623C12.0776 13.489 12.1064 13.3452 12.1064 13.2C12.1064 13.0548 12.0776 12.911 12.0218 12.777C11.9659 12.6429 11.8841 12.5213 11.781 12.419L9.581 10.219ZM17.6 7.634C17.5885 7.53295 17.5664 7.4334 17.534 7.337V7.238C17.4811 7.1249 17.4106 7.02094 17.325 6.93L10.725 0.33C10.6341 0.244438 10.5301 0.173889 10.417 0.121H10.307C10.2 0.0638034 10.0851 0.0230142 9.966 0H3.3C2.42479 0 1.58542 0.347678 0.966548 0.966548C0.347678 1.58542 0 2.42479 0 3.3V18.7C0 19.5752 0.347678 20.4146 0.966548 21.0335C1.58542 21.6523 2.42479 22 3.3 22H14.3C15.1752 22 16.0146 21.6523 16.6335 21.0335C17.2523 20.4146 17.6 19.5752 17.6 18.7V7.7C17.6 7.7 17.6 7.7 17.6 7.634ZM11 3.751L13.849 6.6H12.1C11.8083 6.6 11.5285 6.48411 11.3222 6.27782C11.1159 6.07153 11 5.79174 11 5.5V3.751ZM15.4 18.7C15.4 18.9917 15.2841 19.2715 15.0778 19.4778C14.8715 19.6841 14.5917 19.8 14.3 19.8H3.3C3.00826 19.8 2.72847 19.6841 2.52218 19.4778C2.31589 19.2715 2.2 18.9917 2.2 18.7V3.3C2.2 3.00826 2.31589 2.72847 2.52218 2.52218C2.72847 2.31589 3.00826 2.2 3.3 2.2H8.8V5.5C8.8 6.37522 9.14768 7.21459 9.76655 7.83346C10.3854 8.45233 11.2248 8.8 12.1 8.8H15.4V18.7Z" fill="#5F43E9"/>
</svg>
