<svg width="27" height="27" viewBox="0 0 27 27" fill="none" xmlns="http://www.w3.org/2000/svg">
<path d="M1.35 0.50625H10.8C11.09 0.50625 11.2922 0.600692 11.4208 0.729223C11.5493 0.857753 11.6438 1.06004 11.6438 1.35V10.8C11.6438 11.09 11.5493 11.2922 11.4208 11.4208C11.2922 11.5493 11.09 11.6438 10.8 11.6438H1.35C1.06004 11.6438 0.857753 11.5493 0.729223 11.4208C0.600692 11.2922 0.50625 11.09 0.50625 10.8V1.35C0.50625 1.06004 0.600692 0.857753 0.729223 0.729223C0.857753 0.600692 1.06004 0.50625 1.35 0.50625ZM1.35 15.3563H10.8C11.09 15.3563 11.2922 15.4507 11.4208 15.5792C11.5493 15.7078 11.6438 15.91 11.6438 16.2V25.65C11.6438 25.94 11.5493 26.1423 11.4208 26.2708C11.2922 26.3993 11.09 26.4938 10.8 26.4938H1.35C1.06004 26.4938 0.857754 26.3993 0.729223 26.2708C0.600692 26.1423 0.50625 25.94 0.50625 25.65V16.2C0.50625 15.91 0.600692 15.7078 0.729223 15.5792C0.857753 15.4507 1.06004 15.3563 1.35 15.3563ZM16.2 0.50625H25.65C25.94 0.50625 26.1423 0.600692 26.2708 0.729223C26.3993 0.857754 26.4938 1.06004 26.4938 1.35V10.8C26.4938 11.09 26.3993 11.2922 26.2708 11.4208C26.1423 11.5493 25.94 11.6438 25.65 11.6438H16.2C15.91 11.6438 15.7078 11.5493 15.5792 11.4208C15.4507 11.2922 15.3563 11.09 15.3563 10.8V1.35C15.3563 1.06004 15.4507 0.857753 15.5792 0.729223C15.7078 0.600692 15.91 0.50625 16.2 0.50625ZM16.2 15.3563H25.65C25.94 15.3563 26.1423 15.4507 26.2708 15.5792C26.3993 15.7078 26.4938 15.91 26.4938 16.2V25.65C26.4938 25.94 26.3993 26.1423 26.2708 26.2708C26.1423 26.3993 25.94 26.4938 25.65 26.4938H16.2C15.91 26.4938 15.7078 26.3993 15.5792 26.2708C15.4507 26.1423 15.3563 25.94 15.3563 25.65V16.2C15.3563 15.91 15.4507 15.7078 15.5792 15.5792C15.7078 15.4507 15.91 15.3563 16.2 15.3563Z" fill="#5F43E9" stroke="#5F43E9"/>
</svg>
