<svg width="27" height="27" viewBox="0 0 27 27" fill="none" xmlns="http://www.w3.org/2000/svg">
<mask id="path-1-inside-1_0_12" fill="white">
<path d="M24.3553 14.3909C24.1389 14.1446 24.0196 13.8279 24.0196 13.5C24.0196 13.1721 24.1389 12.8554 24.3553 12.6091L26.0831 10.6654C26.2735 10.453 26.3917 10.1858 26.4208 9.90207C26.4499 9.61835 26.3884 9.33269 26.2451 9.0861L23.5455 4.41574C23.4036 4.16942 23.1876 3.97418 22.9283 3.85784C22.6689 3.7415 22.3795 3.70999 22.1012 3.76782L19.5635 4.28075C19.2406 4.34747 18.9044 4.2937 18.6185 4.12957C18.3325 3.96545 18.1165 3.70233 18.0112 3.38987L17.1878 0.919711C17.0973 0.651609 16.9247 0.418747 16.6946 0.254038C16.4645 0.0893294 16.1885 0.00110522 15.9055 0.00183569H10.5062C10.2119 -0.013528 9.92059 0.0678773 9.67685 0.233618C9.43312 0.399359 9.25033 0.640325 9.15641 0.919711L8.40052 3.38987C8.29523 3.70233 8.07922 3.96545 7.79325 4.12957C7.50728 4.2937 7.17113 4.34747 6.84823 4.28075L4.24308 3.76782C3.97926 3.73054 3.71031 3.77217 3.47011 3.88747C3.2299 4.00277 3.02919 4.18657 2.89327 4.41574L0.193632 9.0861C0.0467185 9.32994 -0.0193387 9.61399 0.00490462 9.89764C0.029148 10.1813 0.14245 10.45 0.328614 10.6654L2.04288 12.6091C2.25928 12.8554 2.37863 13.1721 2.37863 13.5C2.37863 13.8279 2.25928 14.1446 2.04288 14.3909L0.328614 16.3346C0.14245 16.55 0.029148 16.8187 0.00490462 17.1024C-0.0193387 17.386 0.0467185 17.6701 0.193632 17.9139L2.89327 22.5843C3.03513 22.8306 3.25113 23.0258 3.51047 23.1422C3.76982 23.2585 4.05927 23.29 4.33757 23.2322L6.87522 22.7192C7.19812 22.6525 7.53428 22.7063 7.82025 22.8704C8.10622 23.0345 8.32223 23.2977 8.42751 23.6101L9.2509 26.0803C9.34482 26.3597 9.52761 26.6006 9.77134 26.7664C10.0151 26.9321 10.3064 27.0135 10.6007 26.9982H16C16.283 26.9989 16.559 26.9107 16.7891 26.746C17.0192 26.5813 17.1918 26.3484 17.2823 26.0803L18.1057 23.6101C18.211 23.2977 18.427 23.0345 18.713 22.8704C18.9989 22.7063 19.3351 22.6525 19.658 22.7192L22.1956 23.2322C22.4739 23.29 22.7634 23.2585 23.0227 23.1422C23.2821 23.0258 23.4981 22.8306 23.6399 22.5843L26.3396 17.9139C26.4829 17.6673 26.5444 17.3817 26.5153 17.0979C26.4862 16.8142 26.368 16.547 26.1776 16.3346L24.3553 14.3909ZM22.3441 16.1996L23.424 17.4145L21.6962 20.4111L20.1034 20.0871C19.1313 19.8884 18.12 20.0535 17.2615 20.5512C16.4031 21.0488 15.7572 21.8443 15.4466 22.7867L14.9336 24.2985H11.4781L10.9922 22.7597C10.6815 21.8174 10.0357 21.0218 9.17721 20.5242C8.31876 20.0265 7.30746 19.8614 6.3353 20.0601L4.74251 20.3841L2.98775 17.401L4.06761 16.1861C4.73165 15.4437 5.09877 14.4826 5.09877 13.4865C5.09877 12.4904 4.73165 11.5293 4.06761 10.7869L2.98775 9.57203L4.71552 6.60244L6.3083 6.92639C7.28047 7.12512 8.29176 6.95998 9.15021 6.46232C10.0087 5.96467 10.6545 5.16915 10.9652 4.22676L11.4781 2.70147H14.9336L15.4466 4.24026C15.7572 5.18264 16.4031 5.97817 17.2615 6.47582C18.12 6.97348 19.1313 7.13861 20.1034 6.93989L21.6962 6.61594L23.424 9.61253L22.3441 10.8274C21.6875 11.5681 21.325 12.5237 21.325 13.5135C21.325 14.5033 21.6875 15.4589 22.3441 16.1996ZM13.2059 8.10073C12.138 8.10073 11.0941 8.4174 10.2062 9.01067C9.31829 9.60395 8.62625 10.4472 8.21759 11.4338C7.80893 12.4204 7.70201 13.506 7.91034 14.5533C8.11867 15.6007 8.6329 16.5628 9.388 17.3179C10.1431 18.073 11.1052 18.5872 12.1525 18.7955C13.1999 19.0039 14.2855 18.8969 15.2721 18.4883C16.2587 18.0796 17.1019 17.3876 17.6952 16.4997C18.2885 15.6118 18.6051 14.5679 18.6051 13.5C18.6051 12.068 18.0363 10.6947 17.0237 9.68214C16.0112 8.66958 14.6378 8.10073 13.2059 8.10073ZM13.2059 16.1996C12.6719 16.1996 12.15 16.0413 11.706 15.7447C11.2621 15.448 10.9161 15.0264 10.7117 14.5331C10.5074 14.0398 10.4539 13.497 10.5581 12.9733C10.6623 12.4496 10.9194 11.9686 11.2969 11.5911C11.6745 11.2135 12.1555 10.9564 12.6792 10.8522C13.2029 10.7481 13.7457 10.8015 14.239 11.0059C14.7323 11.2102 15.1539 11.5562 15.4505 12.0002C15.7472 12.4441 15.9055 12.9661 15.9055 13.5C15.9055 14.216 15.6211 14.9026 15.1148 15.4089C14.6085 15.9152 13.9218 16.1996 13.2059 16.1996Z"/>
</mask>
<path d="M24.3553 14.3909C24.1389 14.1446 24.0196 13.8279 24.0196 13.5C24.0196 13.1721 24.1389 12.8554 24.3553 12.6091L26.0831 10.6654C26.2735 10.453 26.3917 10.1858 26.4208 9.90207C26.4499 9.61835 26.3884 9.33269 26.2451 9.0861L23.5455 4.41574C23.4036 4.16942 23.1876 3.97418 22.9283 3.85784C22.6689 3.7415 22.3795 3.70999 22.1012 3.76782L19.5635 4.28075C19.2406 4.34747 18.9044 4.2937 18.6185 4.12957C18.3325 3.96545 18.1165 3.70233 18.0112 3.38987L17.1878 0.919711C17.0973 0.651609 16.9247 0.418747 16.6946 0.254038C16.4645 0.0893294 16.1885 0.00110522 15.9055 0.00183569H10.5062C10.2119 -0.013528 9.92059 0.0678773 9.67685 0.233618C9.43312 0.399359 9.25033 0.640325 9.15641 0.919711L8.40052 3.38987C8.29523 3.70233 8.07922 3.96545 7.79325 4.12957C7.50728 4.2937 7.17113 4.34747 6.84823 4.28075L4.24308 3.76782C3.97926 3.73054 3.71031 3.77217 3.47011 3.88747C3.2299 4.00277 3.02919 4.18657 2.89327 4.41574L0.193632 9.0861C0.0467185 9.32994 -0.0193387 9.61399 0.00490462 9.89764C0.029148 10.1813 0.14245 10.45 0.328614 10.6654L2.04288 12.6091C2.25928 12.8554 2.37863 13.1721 2.37863 13.5C2.37863 13.8279 2.25928 14.1446 2.04288 14.3909L0.328614 16.3346C0.14245 16.55 0.029148 16.8187 0.00490462 17.1024C-0.0193387 17.386 0.0467185 17.6701 0.193632 17.9139L2.89327 22.5843C3.03513 22.8306 3.25113 23.0258 3.51047 23.1422C3.76982 23.2585 4.05927 23.29 4.33757 23.2322L6.87522 22.7192C7.19812 22.6525 7.53428 22.7063 7.82025 22.8704C8.10622 23.0345 8.32223 23.2977 8.42751 23.6101L9.2509 26.0803C9.34482 26.3597 9.52761 26.6006 9.77134 26.7664C10.0151 26.9321 10.3064 27.0135 10.6007 26.9982H16C16.283 26.9989 16.559 26.9107 16.7891 26.746C17.0192 26.5813 17.1918 26.3484 17.2823 26.0803L18.1057 23.6101C18.211 23.2977 18.427 23.0345 18.713 22.8704C18.9989 22.7063 19.3351 22.6525 19.658 22.7192L22.1956 23.2322C22.4739 23.29 22.7634 23.2585 23.0227 23.1422C23.2821 23.0258 23.4981 22.8306 23.6399 22.5843L26.3396 17.9139C26.4829 17.6673 26.5444 17.3817 26.5153 17.0979C26.4862 16.8142 26.368 16.547 26.1776 16.3346L24.3553 14.3909ZM22.3441 16.1996L23.424 17.4145L21.6962 20.4111L20.1034 20.0871C19.1313 19.8884 18.12 20.0535 17.2615 20.5512C16.4031 21.0488 15.7572 21.8443 15.4466 22.7867L14.9336 24.2985H11.4781L10.9922 22.7597C10.6815 21.8174 10.0357 21.0218 9.17721 20.5242C8.31876 20.0265 7.30746 19.8614 6.3353 20.0601L4.74251 20.3841L2.98775 17.401L4.06761 16.1861C4.73165 15.4437 5.09877 14.4826 5.09877 13.4865C5.09877 12.4904 4.73165 11.5293 4.06761 10.7869L2.98775 9.57203L4.71552 6.60244L6.3083 6.92639C7.28047 7.12512 8.29176 6.95998 9.15021 6.46232C10.0087 5.96467 10.6545 5.16915 10.9652 4.22676L11.4781 2.70147H14.9336L15.4466 4.24026C15.7572 5.18264 16.4031 5.97817 17.2615 6.47582C18.12 6.97348 19.1313 7.13861 20.1034 6.93989L21.6962 6.61594L23.424 9.61253L22.3441 10.8274C21.6875 11.5681 21.325 12.5237 21.325 13.5135C21.325 14.5033 21.6875 15.4589 22.3441 16.1996ZM13.2059 8.10073C12.138 8.10073 11.0941 8.4174 10.2062 9.01067C9.31829 9.60395 8.62625 10.4472 8.21759 11.4338C7.80893 12.4204 7.70201 13.506 7.91034 14.5533C8.11867 15.6007 8.6329 16.5628 9.388 17.3179C10.1431 18.073 11.1052 18.5872 12.1525 18.7955C13.1999 19.0039 14.2855 18.8969 15.2721 18.4883C16.2587 18.0796 17.1019 17.3876 17.6952 16.4997C18.2885 15.6118 18.6051 14.5679 18.6051 13.5C18.6051 12.068 18.0363 10.6947 17.0237 9.68214C16.0112 8.66958 14.6378 8.10073 13.2059 8.10073ZM13.2059 16.1996C12.6719 16.1996 12.15 16.0413 11.706 15.7447C11.2621 15.448 10.9161 15.0264 10.7117 14.5331C10.5074 14.0398 10.4539 13.497 10.5581 12.9733C10.6623 12.4496 10.9194 11.9686 11.2969 11.5911C11.6745 11.2135 12.1555 10.9564 12.6792 10.8522C13.2029 10.7481 13.7457 10.8015 14.239 11.0059C14.7323 11.2102 15.1539 11.5562 15.4505 12.0002C15.7472 12.4441 15.9055 12.9661 15.9055 13.5C15.9055 14.216 15.6211 14.9026 15.1148 15.4089C14.6085 15.9152 13.9218 16.1996 13.2059 16.1996Z" fill="#73798C" stroke="#73798C" stroke-width="2" mask="url(#path-1-inside-1_0_12)"/>
</svg>
