<svg width="25" height="27" viewBox="0 0 25 27" fill="none" xmlns="http://www.w3.org/2000/svg">
<path d="M12.5127 13.4272C16.2723 13.4272 19.2263 10.4732 19.2263 6.71358C19.2263 2.95397 16.2723 0 12.5127 0C8.75309 0 5.79912 2.95397 5.79912 6.71358C5.79912 10.4732 8.75309 13.4272 12.5127 13.4272ZM24.9999 25.243C23.2544 18.3952 16.2723 14.0985 9.42445 15.844C4.85922 17.0525 1.23389 20.5435 0.0254445 25.243C-0.108827 25.9144 0.293987 26.72 1.09962 26.8543C1.23389 26.8543 1.36816 26.8543 1.36816 26.8543H23.6572C24.4629 26.8543 24.9999 26.3172 24.9999 25.5116C24.9999 25.3773 24.9999 25.243 24.9999 25.243Z" fill="#5F43E9"/>
</svg>
