<svg width="21" height="20" viewBox="0 0 21 20" fill="none" xmlns="http://www.w3.org/2000/svg">
<path d="M20.1755 11.0049C20.0271 10.8823 19.8472 10.8037 19.6563 10.7783C19.4655 10.7528 19.2713 10.7815 19.0959 10.861C18.0086 11.3585 16.8265 11.6146 15.6307 11.6116C13.4189 11.6089 11.2978 10.7319 9.72987 9.17172C8.16199 7.61154 7.27451 5.49476 7.26094 3.28293C7.26563 2.58973 7.35191 1.89949 7.518 1.22646C7.55325 1.04708 7.54003 0.861536 7.4797 0.688959C7.41938 0.516381 7.31414 0.363007 7.17482 0.244636C7.0355 0.126266 6.86714 0.0471813 6.68708 0.015529C6.50703 -0.0161233 6.32179 0.000801735 6.15045 0.0645606C4.53852 0.78937 3.13729 1.91205 2.07841 3.32712C1.01952 4.7422 0.337733 6.40322 0.0970956 8.15416C-0.143542 9.90509 0.0648673 11.6885 0.702745 13.3367C1.34062 14.985 2.38703 16.4441 3.74367 17.5769C5.10031 18.7096 6.72264 19.479 8.45826 19.8126C10.1939 20.1462 11.9858 20.0331 13.6657 19.484C15.3457 18.9348 16.8584 17.9677 18.0619 16.6733C19.2654 15.379 20.1201 13.8 20.5457 12.0846C20.5975 11.8882 20.59 11.6808 20.5242 11.4887C20.4583 11.2965 20.337 11.1282 20.1755 11.0049ZM10.4073 17.8838C8.68171 17.8716 7.00203 17.3264 5.59828 16.3227C4.19453 15.319 3.13533 13.9059 2.56571 12.277C1.99609 10.6481 1.94389 8.88287 2.41626 7.22311C2.88864 5.56336 3.86249 4.09019 5.20448 3.0053V3.28293C5.2072 6.04731 6.30655 8.69769 8.26127 10.6524C10.216 12.6071 12.8664 13.7065 15.6307 13.7092C16.3566 13.7119 17.0805 13.636 17.79 13.483C17.0805 14.8254 16.0178 15.9485 14.7168 16.7313C13.4158 17.5141 11.9257 17.9268 10.4073 17.9249V17.8838Z" fill="#262B35"/>
</svg>
