<svg width="22" height="17" viewBox="0 0 22 17" fill="none" xmlns="http://www.w3.org/2000/svg">
<path d="M19.6403 11.7672C20.1913 11.1383 20.4966 10.3316 20.5 9.49544C20.5 8.56718 20.1313 7.67694 19.4749 7.02057C18.8185 6.36419 17.9283 5.99544 17 5.99544C16.0717 5.99544 15.1815 6.36419 14.5251 7.02057C13.8687 7.67694 13.5 8.56718 13.5 9.49544C13.5034 10.3316 13.8087 11.1383 14.3597 11.7672C13.6397 12.2136 13.0453 12.8361 12.6324 13.5758C12.2196 14.3156 12.0019 15.1483 12 15.9954C12 16.2607 12.1054 16.515 12.2929 16.7025C12.4804 16.8901 12.7348 16.9954 13 16.9954C13.2652 16.9954 13.5196 16.8901 13.7071 16.7025C13.8946 16.515 14 16.2607 14 15.9954C14 15.1998 14.3161 14.4367 14.8787 13.8741C15.4413 13.3115 16.2044 12.9954 17 12.9954C17.7956 12.9954 18.5587 13.3115 19.1213 13.8741C19.6839 14.4367 20 15.1998 20 15.9954C20 16.2607 20.1054 16.515 20.2929 16.7025C20.4804 16.8901 20.7348 16.9954 21 16.9954C21.2652 16.9954 21.5196 16.8901 21.7071 16.7025C21.8946 16.515 22 16.2607 22 15.9954C21.9981 15.1483 21.7804 14.3156 21.3676 13.5758C20.9547 12.8361 20.3603 12.2136 19.6403 11.7672ZM17 10.9954C16.7033 10.9954 16.4133 10.9075 16.1666 10.7426C15.92 10.5778 15.7277 10.3436 15.6142 10.0695C15.5007 9.79538 15.4709 9.49378 15.5288 9.2028C15.5867 8.91183 15.7296 8.64456 15.9393 8.43478C16.1491 8.225 16.4164 8.08214 16.7074 8.02426C16.9983 7.96638 17.2999 7.99609 17.574 8.10962C17.8481 8.22315 18.0824 8.41541 18.2472 8.66209C18.412 8.90876 18.5 9.19877 18.5 9.49544C18.4996 9.89313 18.3414 10.2744 18.0602 10.5556C17.779 10.8368 17.3977 10.995 17 10.9954ZM5.79327 3.70278L7.793 5.70244C7.98109 5.88715 8.23451 5.99011 8.49812 5.98892C8.76174 5.98772 9.01422 5.88247 9.20063 5.69607C9.38703 5.50966 9.49228 5.25718 9.49348 4.99356C9.49467 4.72995 9.39171 4.47653 9.207 4.28844L8.91406 3.99544H13.0859L12.7929 4.28844C12.6991 4.38108 12.6246 4.49135 12.5736 4.61291C12.5225 4.73448 12.496 4.86493 12.4956 4.99677C12.4952 5.1286 12.5209 5.25922 12.5711 5.3811C12.6214 5.50298 12.6953 5.61371 12.7885 5.70693C12.8817 5.80015 12.9925 5.87402 13.1144 5.92428C13.2362 5.97453 13.3669 6.00019 13.4987 5.99977C13.6305 5.99936 13.761 5.97287 13.8825 5.92184C14.0041 5.87081 14.1144 5.79625 14.207 5.70244L16.2067 3.70275C16.3935 3.51474 16.4984 3.26046 16.4984 2.99541C16.4984 2.73037 16.3935 2.47608 16.2067 2.28807L14.207 0.288441C14.0189 0.10373 13.7655 0.000770875 13.5019 0.00196469C13.2383 0.00315851 12.9858 0.108409 12.7994 0.294815C12.613 0.481222 12.5077 0.7337 12.5065 0.997316C12.5053 1.26093 12.6083 1.51435 12.793 1.70244L13.086 1.99544H8.91406L9.20706 1.70244C9.39262 1.51452 9.4963 1.26082 9.49547 0.996723C9.49463 0.732627 9.38934 0.479587 9.20259 0.292846C9.01585 0.106105 8.7628 0.000830253 8.49871 4.88979e-06C8.23461 -0.000820473 7.98091 0.102871 7.793 0.288441L5.79327 2.2881C5.60645 2.47611 5.5016 2.7304 5.5016 2.99544C5.5016 3.26049 5.60645 3.51477 5.79327 3.70278ZM7.64027 11.7672C8.19131 11.1383 8.49662 10.3316 8.5 9.49544C8.5 8.56718 8.13125 7.67694 7.47487 7.02057C6.8185 6.36419 5.92826 5.99544 5 5.99544C4.07174 5.99544 3.1815 6.36419 2.52513 7.02057C1.86875 7.67694 1.5 8.56718 1.5 9.49544C1.50338 10.3316 1.8087 11.1383 2.35974 11.7672C1.63973 12.2136 1.04527 12.8361 0.63242 13.5758C0.219566 14.3156 0.00191925 15.1483 0 15.9954C0 16.2607 0.105357 16.515 0.292893 16.7025C0.48043 16.8901 0.734784 16.9954 1 16.9954C1.26522 16.9954 1.51957 16.8901 1.70711 16.7025C1.89464 16.515 2 16.2607 2 15.9954C2 15.1998 2.31607 14.4367 2.87868 13.8741C3.44129 13.3115 4.20435 12.9954 5 12.9954C5.79565 12.9954 6.55871 13.3115 7.12132 13.8741C7.68393 14.4367 8 15.1998 8 15.9954C8 16.2607 8.10536 16.515 8.29289 16.7025C8.48043 16.8901 8.73478 16.9954 9 16.9954C9.26522 16.9954 9.51957 16.8901 9.70711 16.7025C9.89464 16.515 10 16.2607 10 15.9954C9.99808 15.1483 9.78043 14.3156 9.36758 13.5758C8.95473 12.8361 8.36027 12.2136 7.64026 11.7672H7.64027ZM5 10.9954C4.70333 10.9954 4.41332 10.9075 4.16664 10.7426C3.91997 10.5778 3.72771 10.3436 3.61418 10.0695C3.50065 9.79538 3.47094 9.49378 3.52882 9.2028C3.5867 8.91183 3.72956 8.64456 3.93934 8.43478C4.14912 8.225 4.41639 8.08214 4.70736 8.02426C4.99834 7.96638 5.29994 7.99609 5.57403 8.10962C5.84811 8.22315 6.08238 8.41541 6.2472 8.66209C6.41203 8.90876 6.5 9.19877 6.5 9.49544C6.49957 9.89313 6.34139 10.2744 6.06018 10.5556C5.77897 10.8368 5.39769 10.995 5 10.9954Z" fill="#262B35"/>
</svg>
