<svg width="27" height="27" viewBox="0 0 27 27" fill="none" xmlns="http://www.w3.org/2000/svg">
<path d="M24.0355 14.7488L24.051 14.7694L24.0685 14.7884L25.6698 16.5231C25.8109 16.7174 25.8663 16.8884 25.8758 17.0416C25.8857 17.1999 25.8489 17.3771 25.7485 17.5818L23.0559 22.2938L23.049 22.306L23.0427 22.3186C22.8859 22.6321 22.4589 22.8103 22.1333 22.7289L22.1241 22.7266L22.1148 22.7246L19.558 22.1863C18.7047 21.9797 17.8231 22.6052 17.4904 23.437L17.4849 23.4508L17.4802 23.4649L16.6702 25.8949L16.6641 25.9134L16.6593 25.9322C16.5822 26.2409 16.2494 26.4938 15.9355 26.4938H10.5355C10.2216 26.4938 9.88877 26.2409 9.81161 25.9322L9.80689 25.9134L9.80074 25.8949L8.99987 23.4923C8.78952 22.5369 7.83686 22.0014 6.92619 22.1836L6.92618 22.1836L6.92118 22.1846L4.36119 22.7236C4.36039 22.7237 4.35959 22.7239 4.3588 22.7241C3.89362 22.8163 3.58905 22.6402 3.42827 22.3186L3.42199 22.306L3.41502 22.2938L0.722512 17.5819C0.516173 17.1597 0.57503 16.7514 0.768443 16.558L0.77507 16.5513L0.781447 16.5445L2.53645 14.6545L2.55453 14.635L2.57047 14.6138C3.11047 13.8938 3.11047 12.9713 2.57047 12.2513L2.55453 12.23L2.53645 12.2105L0.781447 10.3205L0.77507 10.3137L0.768443 10.307C0.642264 10.1808 0.552867 10.0049 0.519924 9.82921C0.48616 9.64913 0.519826 9.52362 0.561695 9.46082L0.571367 9.44631L0.580018 9.43117L3.26354 4.735C3.59065 4.31145 3.93477 4.20416 4.20269 4.27114L4.21189 4.27344L4.22118 4.27539L6.78618 4.81539L6.78617 4.81542L6.79119 4.81642C7.69765 4.99771 8.64572 4.46802 8.8619 3.52093L9.7923 1.12849L9.80387 1.09874L9.81161 1.06778C9.88877 0.759114 10.2216 0.50625 10.5355 0.50625H15.9355C16.2266 0.50625 16.605 0.741494 16.8175 1.1419L17.6061 3.50772C17.8164 4.46309 18.7691 4.99855 19.6798 4.81642L19.6798 4.81644L19.6848 4.81539L22.2448 4.27642C22.2455 4.27626 22.2463 4.27611 22.2471 4.27596C22.7123 4.1837 23.0169 4.35983 23.1777 4.6814L23.184 4.69397L23.1909 4.70617L25.8834 9.41805C26.0898 9.84027 26.0309 10.2486 25.8375 10.442L25.8309 10.4487L25.8245 10.4555L24.0695 12.3455L24.0514 12.365L24.0355 12.3863C23.4955 13.1063 23.4955 14.0288 24.0355 14.7488ZM8.67922 13.5C8.67922 16.0746 10.6609 18.0563 13.2355 18.0563C15.8101 18.0563 17.7917 16.0746 17.7917 13.5C17.7917 10.9254 15.8101 8.94375 13.2355 8.94375C10.6609 8.94375 8.67922 10.9254 8.67922 13.5Z" fill="#5F43E9" stroke="#5F43E9"/>
</svg>
