<svg width="19" height="20" viewBox="0 0 19 20" fill="none" xmlns="http://www.w3.org/2000/svg">
<path d="M17.9996 10H15.9996C15.7344 10 15.4801 10.1054 15.2925 10.2929C15.105 10.4804 14.9996 10.7348 14.9996 11C14.9996 11.2652 15.105 11.5196 15.2925 11.7071C15.4801 11.8946 15.7344 12 15.9996 12V14H14.8154C14.9339 13.6798 14.9963 13.3415 14.9996 13C14.9997 12.3396 14.7819 11.6976 14.3799 11.1736C13.9779 10.6497 13.4142 10.273 12.7762 10.1021C12.1383 9.93126 11.4618 9.97568 10.8517 10.2285C10.2416 10.4813 9.73201 10.9285 9.40197 11.5005C9.33567 11.6143 9.29251 11.74 9.27495 11.8705C9.25739 12.0011 9.26579 12.1338 9.29965 12.261C9.33352 12.3883 9.39219 12.5076 9.47229 12.6121C9.5524 12.7166 9.65236 12.8043 9.76644 12.8701C9.88052 12.9359 10.0065 12.9785 10.1371 12.9954C10.2676 13.0124 10.4003 13.0034 10.5274 12.969C10.6545 12.9346 10.7736 12.8754 10.8777 12.7948C10.9819 12.7142 11.0691 12.6139 11.1344 12.4995C11.2222 12.3477 11.3484 12.2217 11.5002 12.1341C11.6521 12.0464 11.8243 12.0002 11.9996 12C12.2648 12 12.5192 12.1054 12.7067 12.2929C12.8943 12.4804 12.9996 12.7348 12.9996 13C12.9996 13.2652 12.8943 13.5196 12.7067 13.7071C12.5192 13.8946 12.2648 14 11.9996 14C11.7344 14 11.4801 14.1054 11.2925 14.2929C11.105 14.4804 10.9996 14.7348 10.9996 15C10.9996 15.2652 11.105 15.5196 11.2925 15.7071C11.4801 15.8946 11.7344 16 11.9996 16C12.2648 16 12.5192 16.1054 12.7067 16.2929C12.8943 16.4804 12.9996 16.7348 12.9996 17C12.9996 17.2652 12.8943 17.5196 12.7067 17.7071C12.5192 17.8946 12.2648 18 11.9996 18C11.8243 17.9998 11.6521 17.9536 11.5002 17.8659C11.3484 17.7783 11.2222 17.6522 11.1344 17.5005C11.0691 17.3861 10.9819 17.2858 10.8777 17.2052C10.7736 17.1246 10.6545 17.0654 10.5274 17.031C10.4003 16.9966 10.2677 16.9876 10.1371 17.0045C10.0065 17.0215 9.88053 17.0641 9.76645 17.1299C9.65237 17.1957 9.55241 17.2834 9.4723 17.3879C9.3922 17.4924 9.33353 17.6117 9.29966 17.739C9.2658 17.8662 9.2574 17.9989 9.27496 18.1294C9.29252 18.26 9.33568 18.3857 9.40198 18.4995C9.73203 19.0715 10.2416 19.5186 10.8517 19.7715C11.4618 20.0243 12.1383 20.0687 12.7762 19.8978C13.4141 19.7269 13.9778 19.3503 14.3799 18.8264C14.7819 18.3024 14.9997 17.6604 14.9996 17C14.9963 16.6585 14.9339 16.3202 14.8154 16H15.9996V19C15.9996 19.2652 16.105 19.5196 16.2925 19.7071C16.4801 19.8946 16.7344 20 16.9996 20C17.2648 20 17.5192 19.8946 17.7067 19.7071C17.8943 19.5196 17.9996 19.2652 17.9996 19V12C18.2648 12 18.5192 11.8946 18.7067 11.7071C18.8943 11.5196 18.9996 11.2652 18.9996 11C18.9996 10.7348 18.8943 10.4804 18.7067 10.2929C18.5192 10.1054 18.2648 10 17.9996 10ZM6.02991 9.24268C6.09427 9.49987 6.25816 9.72096 6.48554 9.8573C6.59812 9.92482 6.72289 9.96949 6.85274 9.98878C6.98259 10.0081 7.11497 10.0016 7.24231 9.96973C7.36966 9.93786 7.48948 9.88122 7.59494 9.80304C7.70039 9.72487 7.78942 9.62669 7.85693 9.5141C7.92445 9.40152 7.96912 9.27674 7.98841 9.1469C8.0077 9.01705 8.00123 8.88467 7.96936 8.75733L6.21252 1.72755C6.08921 1.23411 5.80448 0.796066 5.40361 0.483046C5.00273 0.170026 4.50872 0 4.00012 0C3.49151 0 2.9975 0.170026 2.59663 0.483046C2.19576 0.796066 1.91103 1.23411 1.78772 1.72755L0.029908 8.75733C-0.0344548 9.01451 0.00598593 9.28673 0.142333 9.5141C0.278681 9.74147 0.499766 9.90537 0.756953 9.96973C1.01414 10.0341 1.28636 9.99365 1.51373 9.8573C1.7411 9.72096 1.905 9.49987 1.96936 9.24268L2.53015 7H5.46942L6.02991 9.24268ZM3.03027 5L3.72717 2.2129C3.7483 2.15763 3.7857 2.11008 3.83444 2.07654C3.88318 2.04299 3.94095 2.02503 4.00012 2.02503C4.05928 2.02503 4.11706 2.04299 4.16579 2.07654C4.21453 2.11008 4.25194 2.15763 4.27307 2.2129L4.9696 5H3.03027ZM10.9996 5H11.9996C12.2648 5.00027 12.519 5.10571 12.7064 5.29319C12.8939 5.48067 12.9994 5.73487 12.9996 6V7C12.9996 7.26522 13.105 7.51958 13.2925 7.70711C13.4801 7.89465 13.7344 8 13.9996 8C14.2648 8 14.5192 7.89465 14.7067 7.70711C14.8943 7.51958 14.9996 7.26522 14.9996 7V6C14.9988 5.20462 14.6824 4.44206 14.12 3.87964C13.5576 3.31722 12.795 3.00087 11.9996 3.00001H10.9996C10.7344 3.00001 10.4801 3.10536 10.2925 3.2929C10.105 3.48043 9.99963 3.73479 9.99963 4C9.99963 4.26522 10.105 4.51958 10.2925 4.70711C10.4801 4.89465 10.7344 5 10.9996 5ZM6.99963 14H5.99963C5.73449 13.9997 5.48029 13.8943 5.29281 13.7068C5.10533 13.5193 4.99989 13.2651 4.99963 13V12C4.99963 11.7348 4.89427 11.4804 4.70674 11.2929C4.5192 11.1054 4.26484 11 3.99963 11C3.73441 11 3.48006 11.1054 3.29252 11.2929C3.10498 11.4804 2.99963 11.7348 2.99963 12V13C3.0005 13.7954 3.31685 14.5579 3.87927 15.1204C4.44169 15.6828 5.20425 15.9991 5.99963 16H6.99963C7.26484 16 7.5192 15.8946 7.70674 15.7071C7.89427 15.5196 7.99963 15.2652 7.99963 15C7.99963 14.7348 7.89427 14.4804 7.70674 14.2929C7.5192 14.1054 7.26484 14 6.99963 14Z" fill="#262B35"/>
</svg>
